{"title":"Game.of.Thrones.S05E10.1080p.HDTV.x264-BATV","uid":12018780,"size":6395890849,"categoryP":"video","categoryS":"hd___tv_shows","magnet":"?xt=urn:btih:6e8206b53c0f4b2bfc616a99c0af1a3a9b43daf1&amp;dn=Game.of.Thrones.S05E10.1080p.HDTV.x264-BATV&amp;tr=udp%3A%2F%2Ftracker.openbittorrent.com%3A80&amp;tr=udp%3A%2F%2Fopen.demonii.com%3A1337&amp;tr=udp%3A%2F%2Ftracker.coppersurfer.tk%3A6969&amp;tr=udp%3A%2F%2Fexodus.desync.com%3A6969","seeders":1,"leechers":13,"uploader":"FrancoMango","files":1,"time":1434367584,"description":"Game Of Thrones Season 5 Finale \n\nGame.of.Thrones.S05E10.1080p.HDTV.x264-BATV\n\n\n\nFormat                      : Matroska\nFormat version              : Version 4 / Version 2\nFile size                   : 5.96 GiB\nDuration                    : 1h 0mn\nOverall bit rate            : 14.2 Mbps\nEncoded date                : UTC 2015-06-15 06:13:00\nWriting application         : mkvmerge v7.9.0 ('Birds') 64bit\nWriting library             : libebml v1.3.1 + libmatroska v1.4.2\nDURATION                    : 00:58:51.176000000\nNUMBER_OF_FRAMES            : 661\nNUMBER_OF_BYTES             : 18930\n_STATISTICS_WRITING_APP     : mkvmerge v7.9.0 ('Birds') 64bit\n_STATISTICS_WRITING_DATE_UT : 2015-06-15 06:13:00\n_STATISTICS_TAGS            : BPS DURATION NUMBER_OF_FRAMES NUMBER_OF_BYTES\n\nVideo\nID                          : 1\nFormat                      : AVC\nFormat/Info                 : Advanced Video Codec\nFormat profile              : &lt;a class=&quot;__cf_email__&quot; href=&quot;/cdn-cgi/l/email-protection&quot; data-cfemail=&quot;efa7868887afa3dbc1de&quot;&gt;[email&amp;#160;protected]&lt;/a&gt;&lt;script data-cfhash='f9e31' type=&quot;text/javascript&quot;&gt;\n/* &lt;![CDATA[ */!function(){try{var t=&quot;currentScript&quot;in document?document.currentScript:function(){for(var t=document.getElementsByTagName(&quot;script&quot;),e=t.length;e--;)if(t[e].getAttribute(&quot;data-cfhash&quot;))return t[e]}();if(t&amp;&amp;t.previousSibling){var e,r,n,i,c=t.previousSibling,a=c.getAttribute(&quot;data-cfemail&quot;);if(a){for(e=&quot;&quot;,r=parseInt(a.substr(0,2),16),n=2;a.length-n;n+=2)i=parseInt(a.substr(n,2),16)^r,e+=String.fromCharCode(i);e=document.createTextNode(e),c.parentNode.replaceChild(e,c)}t.parentNode.removeChild(t);}}catch(u){}}()/* ]]&gt; */&lt;/script&gt;\nFormat settings, CABAC      : Yes\nFormat settings, ReFrames   : 4 frames\nCodec ID                    : V_MPEG4/ISO/AVC\nDuration                    : 1h 0mn\nBit rate                    : 13.5 Mbps\nWidth                       : 1 920 pixels\nHeight                      : 1 078 pixels\nDisplay aspect ratio        : 16:9\nFrame rate mode             : Constant\nFrame rate                  : 23.976 fps\nColor space                 : YUV\nChroma subsampling          : 4:2:0\nBit depth                   : 8 bits\nScan type                   : Progressive\nBits/(Pixel*Frame)          : 0.272\nStream size                 : 5.68 GiB (95%)\nWriting library             : x264 core 146 r2538 121396c\n\nLanguage                    : English\nDefault                     : Yes\nForced                      : No\nColor range                 : Limited\nMatrix coefficients         : BT.709\nDURATION                    : 01:00:11.108000000\nNUMBER_OF_FRAMES            : 86580\nNUMBER_OF_BYTES             : 6221634597\n\nAudio\nID                          : 2\nFormat                      : AC-3\nFormat/Info                 : Audio Coding 3\nMode extension              : CM (complete main)\nFormat settings, Endianness : Big\nCodec ID                    : A_AC3\nDuration                    : 1h 0mn\nBit rate mode               : Constant\nBit rate                    : 384 Kbps\nChannel(s)                  : 6 channels\nChannel positions           : Front: L C R, Side: L R, LFE\nSampling rate               : 48.0 KHz\nCompression mode            : Lossy\nStream size                 : 165 MiB (3%)\nDefault                     : Yes\nForced                      : No\n\nText\nID                          : 3\nFormat                      : UTF-8\nCodec ID                    : S_TEXT/UTF8\nCodec ID/Info               : UTF-8 Plain Text\nDefault                     : Yes\nForced                      : No","torrent":{"xt":"urn:btih:6e8206b53c0f4b2bfc616a99c0af1a3a9b43daf1","amp;dn":"Game.of.Thrones.S05E10.1080p.HDTV.x264-BATV","amp;tr":["udp%3A%2F%2Ftracker.openbittorrent.com%3A80","udp%3A%2F%2Fopen.demonii.com%3A1337","udp%3A%2F%2Ftracker.coppersurfer.tk%3A6969","udp%3A%2F%2Fexodus.desync.com%3A6969"],"infoHash":"6e8206b53c0f4b2bfc616a99c0af1a3a9b43daf1","infoHashBuffer":{"type":"Buffer","data":[110,130,6,181,60,15,75,43,252,97,106,153,192,175,26,58,155,67,218,241]},"announce":[],"urlList":[]}}